# xmcd
#
# Track frame offsets: 
#        150
#        28888
#        48839
#        74860
#
# Disc length: 1259 seconds
#
# Revision: 0
# Processed by: cddbd v1.5.2PL0 Copyright (c) Steve Scherf et al.
# Submitted via: ExactAudioCopy v0.95b4
#
DISCID=3804e904
DTITLE=Peter Hammill - Frankfurt Music Hall 03.02.1992
DYEAR=1992
DGENRE=Blues
TTITLE0=Curtains (Live In Frankfurt 03.02.92)
TTITLE1=Time To Burn (Live In Frankfurt 03.02.92)
TTITLE2=Traintime (Live In Frankfurt 03.02.92)
TTITLE3=Losing Faith In Words (Live In Frankfurt 03.02.92)
EXTD=
EXTT0=
EXTT1=
EXTT2=
EXTT3=
PLAYORDER=
